<svg id="Слой_1" data-name="Слой 1" xmlns="http://www.w3.org/2000/svg" viewBox="0 0 500 500"><defs><style>.cls-1{fill:none;}.cls-2{fill:#b7a0a0;}.cls-3{fill:#bbd070;}.cls-4{fill:#97a43c;}.cls-5{fill:#48753a;}.cls-6{fill:#957373;}.cls-7{fill:#f3f3f3;}.cls-8{opacity:0.53;}.cls-9{fill:#704242;}.cls-10{fill:#e3dada;}.cls-11{fill:#835b5b;}.cls-12{fill:#ede4e4;}.cls-13{fill:#e2d9d9;}.cls-14{fill:#d6d6d6;}.cls-15{fill:#e8e8e8;}.cls-16{fill:#c2c2c2;}.cls-17{fill:#5a4242;}.cls-18{fill:#8c6262;}.cls-19{fill:#5c544d;}.cls-20{fill:#3c4145;}.cls-21{fill:#33373b;}.cls-22{fill:#eea886;}.cls-23{fill:#2f4563;}.cls-24{fill:#feb703;}.cls-25{fill:#877373;}.cls-26{fill:#e3dddd;}.cls-27{fill:#d88a51;}.cls-28{fill:#ab4d1a;}.cls-29{fill:#d1848d;}.cls-30{fill:#d74f5f;}.cls-31{fill:#c2bebc;}.cls-32{fill:#e6a603;}</style></defs><rect class="cls-1" width="500" height="500"/><path class="cls-2" d="M343.58,265.85h-69a9.08,9.08,0,0,1-9.07-9.07V208.52a9.07,9.07,0,0,1,9.07-9.06h69a9.07,9.07,0,0,1,9.07,9.06v48.26A9.08,9.08,0,0,1,343.58,265.85Zm-69-65.56a8.24,8.24,0,0,0-8.23,8.23v48.26a8.24,8.24,0,0,0,8.23,8.23h69a8.24,8.24,0,0,0,8.23-8.23V208.52a8.24,8.24,0,0,0-8.23-8.23Z"/><path class="cls-3" d="M317.17,147s9.23,14,1.44,21.45-8.71-.87-8.71-.87-4.17.27,4.12-9.21C317.92,153.92,317.17,147,317.17,147Z"/><path class="cls-4" d="M341.88,139.86s6.59,12.72-8.91,24.64-15.43,20.14-15.43,20.14S306.63,155.15,341.88,139.86Z"/><path class="cls-5" d="M315.56,179.21c-5.89-.16,2.74-15.12,12.33-18.15s17.25-1.78,23.09-5.49C351,155.57,344.57,180,315.56,179.21Z"/><rect class="cls-6" x="210.67" y="268.49" width="0.74" height="88.11"/><path class="cls-7" d="M316.66,178.15V171a22.92,22.92,0,0,0-.18-2.9c-1-8.15-6.33-14.36-12.72-14.36H143.41c-6.39,0-11.7,6.21-12.73,14.36a22.92,22.92,0,0,0-.18,2.9V322.41c0,9.54,5.78,17.26,12.91,17.26H303.76c7.13,0,12.91-7.72,12.91-17.26V178.15Z"/><path class="cls-6" d="M296.46,315.17H206.55a7.66,7.66,0,0,1-7.65-7.66V247a7.66,7.66,0,0,1,7.65-7.65h89.91a7.66,7.66,0,0,1,7.66,7.65v60.47A7.67,7.67,0,0,1,296.46,315.17Zm-89.91-75a6.82,6.82,0,0,0-6.81,6.82v60.47a6.82,6.82,0,0,0,6.81,6.82h89.91a6.83,6.83,0,0,0,6.82-6.82V247a6.83,6.83,0,0,0-6.82-6.82Z"/><g class="cls-8"><path class="cls-9" d="M316.66,245.24v70a23,23,0,0,1-.49,4.76c-.31,0-.62.05-.94.05H225.32a7.23,7.23,0,0,1-7.23-7.23V252.34a7.24,7.24,0,0,1,7.23-7.24h89.91A7.46,7.46,0,0,1,316.66,245.24Z"/></g><path class="cls-9" d="M316.48,168.1H130.68c1-8.15,6.34-14.36,12.73-14.36H303.76C310.15,153.74,315.45,160,316.48,168.1Z"/><rect class="cls-9" x="172.24" y="154.74" width="32.45" height="30.98" rx="7.11"/><rect class="cls-9" x="164.69" y="157.33" width="23.77" height="15.78" rx="4.34"/><rect class="cls-6" x="159.1" y="345.9" width="60.83" height="0.74"/><path class="cls-10" d="M236.32,249.5h89.91a7.24,7.24,0,0,1,7.24,7.24V317.2a7.24,7.24,0,0,1-7.24,7.24H236.32a7.23,7.23,0,0,1-7.23-7.23V256.73A7.24,7.24,0,0,1,236.32,249.5Z"/><rect class="cls-11" x="237.37" y="257.27" width="34.95" height="3.81" rx="0.94"/><rect class="cls-11" x="237.37" y="265.44" width="34.95" height="3.81" rx="0.94"/><rect class="cls-11" x="237.37" y="274.81" width="34.95" height="43.06" rx="3.17"/><rect class="cls-12" x="167.04" y="215.6" width="24.87" height="5.15"/><rect class="cls-12" x="167.04" y="224.61" width="24.87" height="5.15"/><rect class="cls-11" x="279.11" y="257.27" width="49.19" height="60.6" rx="4.47"/><path class="cls-9" d="M219.93,360.51a5.95,5.95,0,1,1,5.95-5.94A6,6,0,0,1,219.93,360.51Zm0-11a5.06,5.06,0,1,0,5.06,5.06A5.07,5.07,0,0,0,219.93,349.51Z"/><rect class="cls-11" x="309.96" y="173.97" width="86.31" height="65.55" rx="8.65"/><path class="cls-13" d="M396.27,182.62l-.15,4.8H309.81l.15-4.8a8.65,8.65,0,0,1,8.65-8.65h69A8.64,8.64,0,0,1,396.27,182.62Z"/><path class="cls-13" d="M337,234H319.67a4.07,4.07,0,0,1-4.07-4.07V195.31a4.07,4.07,0,0,1,4.07-4.07H337a4.07,4.07,0,0,1,4.07,4.07v34.62A4.07,4.07,0,0,1,337,234Zm-17.36-41.41a2.72,2.72,0,0,0-2.72,2.72v34.62a2.72,2.72,0,0,0,2.72,2.72H337a2.72,2.72,0,0,0,2.72-2.72V195.31a2.72,2.72,0,0,0-2.72-2.72Z"/><path class="cls-11" d="M323.78,181.27a3.76,3.76,0,1,1-3.76-3.75A3.75,3.75,0,0,1,323.78,181.27Z"/><rect class="cls-13" x="346.74" y="213.99" width="5.26" height="19.34"/><rect class="cls-13" x="354.22" y="212.04" width="5.26" height="21.29"/><rect class="cls-13" x="369.58" y="207.92" width="5.26" height="25.41"/><rect class="cls-13" x="361.8" y="216.09" width="5.26" height="17.24"/><rect class="cls-13" x="376.88" y="214.6" width="5.26" height="18.73"/><rect class="cls-13" x="384.15" y="204.75" width="5.26" height="28.58"/><polygon class="cls-14" points="113.55 202.1 95.38 191.06 101.77 190.87 113.55 202.1"/><polygon class="cls-15" points="113.55 202.1 108.17 192.72 103.39 192.42 113.55 202.1"/><polygon class="cls-16" points="99.56 193.6 99.11 195.92 113.55 202.1 99.56 193.6"/><polygon class="cls-17" points="411.79 396.59 411.13 396.56 414.45 313.21 357.02 313.21 353.7 396.59 353.04 396.56 356.39 312.55 415.14 312.55 411.79 396.59"/><polygon class="cls-17" points="417.17 396.59 413.85 313.21 356.42 313.21 359.74 396.56 359.08 396.59 355.73 312.55 414.48 312.55 417.83 396.56 417.17 396.59"/><polygon class="cls-17" points="359.41 369.47 417.5 369.47 414.16 285.77 356.08 285.77 359.41 369.47"/><polygon class="cls-13" points="409.82 369.47 351.73 369.47 355.07 285.77 413.15 285.77 409.82 369.47"/><path class="cls-6" d="M380.34,298.74a9.41,9.41,0,1,0-17.72,6.34c.07.2.14.39.23.59a9.22,9.22,0,0,0,1.46,2.34,9.41,9.41,0,0,0,16-9.27Zm-6.48,9.81a7.06,7.06,0,0,1-7.76-2.07,6.79,6.79,0,0,1-1.09-1.75l-.18-.44a7.07,7.07,0,0,1,4.27-9,7.56,7.56,0,0,1,2.17-.41,7.06,7.06,0,0,1,2.59,13.7Z"/><path class="cls-17" d="M364.74,299.81l-2.25-.71a9.45,9.45,0,0,1,8.71-6.6l.07,2.35a7.56,7.56,0,0,0-2.17.41A7.09,7.09,0,0,0,364.74,299.81Z"/><path class="cls-9" d="M365,304.73l-2.16.94c-.09-.2-.16-.39-.23-.59a9.36,9.36,0,0,1-.13-6l2.25.71a7.09,7.09,0,0,0,.09,4.48Z"/><path class="cls-11" d="M364.31,308a9.22,9.22,0,0,1-1.46-2.34l2.16-.94a6.79,6.79,0,0,0,1.09,1.75Z"/><rect class="cls-11" x="387.47" y="292.68" width="16.31" height="4.35" rx="1.08"/><rect class="cls-11" x="387.47" y="299.41" width="16.31" height="4.35" rx="1.08"/><rect class="cls-11" x="387.47" y="306.14" width="16.31" height="4.35" rx="1.08"/><rect class="cls-18" x="360.44" y="331.59" width="6.12" height="30.82"/><rect class="cls-18" x="369.14" y="328.48" width="6.12" height="33.93"/><rect class="cls-18" x="377.97" y="334.94" width="6.12" height="27.47"/><rect class="cls-18" x="386.79" y="322.21" width="6.12" height="40.2"/><rect class="cls-18" x="396.04" y="326.21" width="6.12" height="36.2"/><path class="cls-19" d="M333.51,386.66s.37,2.7.41,3.11,4.11-.24,4.11-.24l.33-3.22S334,386.28,333.51,386.66Z"/><path class="cls-20" d="M333.88,389.43a11,11,0,0,1-2.53,2.34c-1.24.71-3.19,1-3.93,1.72-.53.53-1.93,2.82,3.23,2.77s7.65.32,8.21-.55-.8-6.47-.8-6.47A10.34,10.34,0,0,1,333.88,389.43Z"/><path class="cls-19" d="M304.45,386.66s.37,2.7.41,3.11,4.1-.24,4.1-.24l.33-3.22S305,386.28,304.45,386.66Z"/><path class="cls-20" d="M304.82,389.43a11.28,11.28,0,0,1-2.53,2.34c-1.24.71-5.82,1.29-6.55,2-.53.54-1.42,2.67,5.85,2.47,5.16-.14,7.65.32,8.2-.55s-.8-6.47-.8-6.47S307.84,389.74,304.82,389.43Z"/><path class="cls-21" d="M332.07,316.86s2.16,6.71,1.87,12.49,1.12,12.11,1.69,18.15c.64,6.73,3.25,22.67,3.35,26.28s-.41,15.1-.41,15.1l-5.23.12s-4.39-27.86-5.53-30.71-6.77-23.11-7-25.38S332.07,316.86,332.07,316.86Z"/><path class="cls-20" d="M310.09,318.06s-2.88,15.84-3.25,19.38-.64,17.13-.83,19.34-1.26,28.94-2.27,32.22h5.83s6-19.43,6-28.62,4-20,6.52-26.05,8.42-6.21,10-17.47C332.07,316.86,312.22,314.49,310.09,318.06Z"/><path class="cls-22" d="M322,266.06s-5.35-1.09-7.08,3.12-.29,11.88,2.4,12.43,6.45-.55,7.37-3.16,1.56-6.28,1.14-8.6A5.15,5.15,0,0,0,322,266.06Z"/><path class="cls-22" d="M291.21,322.13a12.49,12.49,0,0,1-2.15,1.93c-.54.19-1.62-.7-5.5-.83-.33,0-.92.31-.76.76s1.54,2.24,2.27,2.39,4.51.73,6.14,0a6.73,6.73,0,0,0,2.67-2.87Z"/><path class="cls-22" d="M317.88,281.7a4.44,4.44,0,0,1,.18,2.05c-.24.73,6.66-.33,6.66-.33a45.26,45.26,0,0,1,.56-7C325.86,273.16,317.88,281.7,317.88,281.7Z"/><path class="cls-23" d="M325.28,276.42s-.35.86-2.34.86-4.77-2.21-5.62-2.37-.94-.63-.94-.63l-.39.82-.86.19s.43-2.44-.91-3.19.06-7.68,6.63-6.48c0,0,5,.57,5.25,3.32S326.14,274.9,325.28,276.42Z"/><path class="cls-24" d="M342.52,305.67c-.55-1.18-4-12.35-4.81-13.62s-3.2-5.18-6.82-6.4-7.58-3.08-7.58-3.08l-5.8,1s-3.36,1.63-7.57,3.59c0,0-4.92,1.43-5.38,6.2a110.84,110.84,0,0,1-3,13.32c-.5,1.14-10.89,15.46-11.1,15.84s2.68,2.38,3,2.21S305.4,312.06,306,310.84c0,0,3.58-7.24,3.66-8.71,0,0,.09,4.2.26,5.38s-1.54,16.3-1.45,16.93,11.53,2.89,16.88,2.31a28.24,28.24,0,0,0,9.18-2.61s-.17-.69-.41-1.76c2.54-3.69,7.67-11.2,8.25-12.34A5.53,5.53,0,0,0,342.52,305.67Zm-9.17,9.57-.54,1.12a18.47,18.47,0,0,1-.49-4.47c.34-2,1-13.31,1-13.31l3.7,9.16Z"/><path class="cls-24" d="M317.47,284s0-1.3.61-1.43,6.51-.69,7.23-.4v1.51S323.92,284.55,317.47,284Z"/><path class="cls-22" d="M316.35,273.27c0-.48,1-2,1.66-.64s-.16,3.38-.81,3.32S316.26,274.47,316.35,273.27Z"/><polygon class="cls-25" points="179.86 183.46 180.37 183.46 180.4 181.18 168.85 179.29 168.91 173.96 170.9 173.98 170.91 173.46 168.4 173.44 168.33 179.72 179.88 181.62 179.86 183.46"/><rect class="cls-26" x="170.69" y="170.87" width="18.76" height="5.91" transform="translate(358.08 349.74) rotate(-179.33)"/><rect class="cls-25" x="178.83" y="183.04" width="2.57" height="17.31" transform="translate(360.22 383.38) rotate(180)"/><path class="cls-19" d="M143.45,294.72s-.67,2.6-.76,3-4.17-.68-4.17-.68v-3.19S143,294.29,143.45,294.72Z"/><path class="cls-20" d="M142.77,297.38a11.33,11.33,0,0,0,2.35,2.57c1.19.84,5.82,1.91,6.49,2.71.49.58,1.17,2.77-6.25,1.77-5.27-.71-7.87-.53-8.34-1.45s1.5-6.24,1.5-6.24S139.65,297.36,142.77,297.38Z"/><rect class="cls-2" x="60.39" y="305.75" width="178.33" height="1.87" transform="translate(-170.18 425.84) rotate(-84.44)"/><rect class="cls-2" x="30.21" y="302.82" width="178.33" height="1.87" transform="translate(-194.52 393.16) rotate(-84.44)"/><rect class="cls-2" x="141.81" y="204.79" width="1.87" height="30.32" transform="translate(-89.96 340.79) rotate(-84.46)"/><rect class="cls-2" x="140.45" y="218.83" width="1.87" height="30.32" transform="translate(-105.17 352.1) rotate(-84.45)"/><rect class="cls-2" x="139.09" y="232.86" width="1.87" height="30.32" transform="translate(-120.37 363.43) rotate(-84.45)"/><rect class="cls-2" x="137.73" y="246.9" width="1.87" height="30.32" transform="translate(-135.57 374.73) rotate(-84.45)"/><rect class="cls-2" x="136.37" y="260.93" width="1.88" height="30.32" transform="translate(-150.76 386.07) rotate(-84.45)"/><rect class="cls-2" x="135" y="274.96" width="1.87" height="30.32" transform="translate(-165.96 397.41) rotate(-84.46)"/><rect class="cls-2" x="133.64" y="289" width="1.87" height="30.32" transform="translate(-181.14 408.8) rotate(-84.47)"/><rect class="cls-2" x="132.28" y="303.03" width="1.87" height="30.32" transform="translate(-196.36 420.06) rotate(-84.46)"/><rect class="cls-2" x="130.92" y="317.07" width="1.88" height="30.32" transform="translate(-211.56 431.38) rotate(-84.46)"/><rect class="cls-2" x="129.56" y="331.1" width="1.87" height="30.32" transform="translate(-226.76 442.7) rotate(-84.46)"/><rect class="cls-2" x="128.19" y="345.14" width="1.87" height="30.32" transform="translate(-241.96 453.99) rotate(-84.45)"/><rect class="cls-2" x="126.83" y="359.17" width="1.88" height="30.32" transform="translate(-257.16 465.33) rotate(-84.45)"/><rect class="cls-2" x="125.47" y="373.21" width="1.87" height="30.32" transform="translate(-272.36 476.65) rotate(-84.45)"/><path class="cls-22" d="M183.38,193.24a2.79,2.79,0,0,1-.65.61s-.51.19-.87.35l-.27.13a4.74,4.74,0,0,1-1.44.77c-.7.2-3.85.92-3.85.92l-.74-1.88-.52-1.51s2.92-3.78,3.55-4l.18-.06a6.09,6.09,0,0,1,1.34-.12c.11,0,1.22-.15,1.46.08a1.1,1.1,0,0,1,.38,1,2.58,2.58,0,0,1,.67,1.27,1.63,1.63,0,0,1,.44,1.37S183.6,192.78,183.38,193.24Z"/><path class="cls-11" d="M149.56,217.79a43,43,0,0,1,4.94-2.73c6.07-3,13.58-8.56,15-9.35,2.2-1.23,9.13-9.69,9.13-9.69-.36-1.28-3.65-3.84-3.65-3.84s-10.5,9.95-12.8,11.18c-2,1-11.73,2.11-14.41,2.39l-.69.07C144.28,209.65,148,218.8,149.56,217.79Z"/><path class="cls-20" d="M148.49,239.86s3,11,3.75,15c.69,3.44,2.06,12.6,2.26,14.78s-8.78,23.25-9.71,27.05l-8.18-1.31s8.63-21.93,6.38-26.81c-3.35-7.25-3.78-7-6.42-13s-8.67-6.11-10.29-17.19C126.28,238.36,146.29,236.34,148.49,239.86Z"/><path class="cls-22" d="M134,186.22s5.43-2,7.93,2.1,2.26,12.4-.47,13.42-6.85.49-8.25-2.1-2.66-6.32-2.6-8.82S132.53,186.94,134,186.22Z"/><path class="cls-22" d="M140.5,201.49a4.56,4.56,0,0,0,.14,2.12c.36.7-6.83.72-6.83.72a46.83,46.83,0,0,0-1.69-7C131,194.08,140.5,201.49,140.5,201.49Z"/><path class="cls-27" d="M132.12,197.3s.5.82,2.53.5,4.49-3,5.34-3.31.85-.79.85-.79l.53.77.9.06s-.82-2.41.41-3.4-1.28-7.8-7.77-5.53c0,0-5,1.38-4.81,4.21S131,195.88,132.12,197.3Z"/><path class="cls-22" d="M140.71,192.66c-.12-.47-1.33-1.83-1.79-.37s.7,3.41,1.35,3.24S141,193.87,140.71,192.66Z"/><path class="cls-11" d="M120,222.24a3.11,3.11,0,0,0,3,2.28l5.64.19s4.2-13.55-3.67-18.72C124.72,206,119.46,215.71,120,222.24Z"/><path class="cls-28" d="M125.71,223.78l.19,0a37.92,37.92,0,0,1-.26-8.39l-.18,0A37.28,37.28,0,0,0,125.71,223.78Z"/><path class="cls-20" d="M137,303c.48.92,3.08.74,8.35,1.45a25,25,0,0,0,3.46.26l.31-3.17a23.55,23.55,0,0,1-4-1.57,11.33,11.33,0,0,1-2.35-2.57c-3.12,0-4.25-.64-4.25-.64S136.54,302.06,137,303Z"/><path class="cls-11" d="M140.5,203.2s-4.42-1-6.92-.19l-.38.35s-.75,1.45,2.1,1.58S142.64,205.27,140.5,203.2Z"/><path class="cls-19" d="M123.21,306.9s-.67,2.61-.76,3-4.17-.69-4.17-.69V306S122.73,306.47,123.21,306.9Z"/><path class="cls-20" d="M126.28,238.36a85.82,85.82,0,0,0-1.93,12.29c-.41,5.69-1.15,11.93-1.74,17.87-.66,6.63-2.53,17.35-2.63,20.89s-3.08,19-3.08,19l7.63.88s5-27.38,6.13-30.18,7-22.76,7.18-25S126.28,238.36,126.28,238.36Z"/><path class="cls-20" d="M122.53,309.57a11.44,11.44,0,0,0,2.34,2.57c1.2.83,5.82,1.91,6.5,2.71.49.58,1.17,2.77-6.25,1.77-5.27-.71-7.87-.53-8.35-1.45s1.51-6.24,1.51-6.24A10.13,10.13,0,0,0,122.53,309.57Z"/><path class="cls-11" d="M150,253.64c.65-.09-1.61-19.47-1.44-20.69.12-.81.1-7.11,0-11l.71-4a18.31,18.31,0,0,1,1.55-1c1-.57,2.22-1.22,3.6-1.9-.16-.94-.28-1.68-.32-2.11-.4-4.14-3.16-5.86-6.41-7.2s-7.27-2.55-7.27-2.55H134a55.64,55.64,0,0,0-7.94,2.2A5.84,5.84,0,0,0,125,206l.89,18.63h0v0c.4,2.62.82,5.71,1,7.88.06.88-1,5.64-1.48,10L123.48,253S124.55,257.29,150,253.64Z"/><polygon class="cls-29" points="201.32 227.76 200.71 226.76 225.13 212.02 244.69 220.91 269.13 202.8 286.02 207.47 303.31 191.99 304.09 192.86 286.32 208.76 269.37 204.08 244.83 222.26 225.21 213.34 201.32 227.76"/><path class="cls-7" d="M247.88,221.59a3.12,3.12,0,1,1-3.12-3.12A3.12,3.12,0,0,1,247.88,221.59Z"/><path class="cls-2" d="M244.76,225.29a3.71,3.71,0,1,1,3.7-3.7A3.7,3.7,0,0,1,244.76,225.29Zm0-6.24a2.54,2.54,0,1,0,2.53,2.54A2.54,2.54,0,0,0,244.76,219.05Z"/><path class="cls-7" d="M272.32,203.63a3.12,3.12,0,1,1-3.12-3.11A3.12,3.12,0,0,1,272.32,203.63Z"/><path class="cls-2" d="M269.2,207.33a3.7,3.7,0,1,1,3.7-3.7A3.7,3.7,0,0,1,269.2,207.33Zm0-6.23a2.53,2.53,0,1,0,2.54,2.53A2.54,2.54,0,0,0,269.2,201.1Z"/><path class="cls-7" d="M289.14,208a3.12,3.12,0,1,1-3.11-3.12A3.11,3.11,0,0,1,289.14,208Z"/><path class="cls-2" d="M286,211.69a3.7,3.7,0,1,1,3.7-3.7A3.71,3.71,0,0,1,286,211.69Zm0-6.24a2.54,2.54,0,1,0,2.53,2.54A2.54,2.54,0,0,0,286,205.45Z"/><path class="cls-7" d="M228.21,213a3.12,3.12,0,1,1-3.12-3.12A3.12,3.12,0,0,1,228.21,213Z"/><path class="cls-2" d="M225.09,216.66a3.7,3.7,0,1,1,3.7-3.7A3.7,3.7,0,0,1,225.09,216.66Zm0-6.23a2.53,2.53,0,1,0,2.53,2.53A2.53,2.53,0,0,0,225.09,210.43Z"/><path class="cls-30" d="M182.53,259.4H171.28a4.47,4.47,0,0,1-4.46-4.47V243.68a4.47,4.47,0,0,1,4.46-4.47h11.25a4.47,4.47,0,0,1,4.47,4.47v11.25A4.47,4.47,0,0,1,182.53,259.4Zm-11.25-19.35a3.64,3.64,0,0,0-3.63,3.63v11.25a3.64,3.64,0,0,0,3.63,3.63h11.25a3.63,3.63,0,0,0,3.63-3.63V243.68a3.63,3.63,0,0,0-3.63-3.63Z"/><path class="cls-30" d="M182.53,286.18H171.28a4.46,4.46,0,0,1-4.46-4.46V270.47a4.47,4.47,0,0,1,4.46-4.47h11.25a4.47,4.47,0,0,1,4.47,4.47v11.25A4.47,4.47,0,0,1,182.53,286.18Zm-11.25-19.34a3.63,3.63,0,0,0-3.63,3.63v11.25a3.64,3.64,0,0,0,3.63,3.63h11.25a3.63,3.63,0,0,0,3.63-3.63V270.47a3.62,3.62,0,0,0-3.63-3.63Z"/><rect class="cls-30" x="167.23" y="293.2" width="19.35" height="19.35" rx="4.05"/><path class="cls-7" d="M176.3,307.14l-4.9-4.26a1,1,0,0,1,1.27-1.46l3.46,3,4.93-5.5a1,1,0,0,1,1.44,1.28Z"/><path class="cls-31" d="M341.17,271.88l0-1s1.43-.05,3.82-.33l.11,1C342.64,271.83,341.23,271.88,341.17,271.88Zm7.74-.88-.16-1c1.24-.21,2.51-.45,3.76-.71l.21,1C351.45,270.55,350.17,270.79,348.91,271Zm7.58-1.61-.25-1c1.23-.32,2.47-.67,3.68-1l.29.95C359,268.71,357.74,269.06,356.49,269.39Zm7.4-2.27-.34-.95c1.2-.43,2.4-.89,3.57-1.36l.38.92C366.32,266.22,365.1,266.68,363.89,267.12Zm7.15-2.94-.42-.91c1.15-.54,2.3-1.11,3.42-1.7l.46.89C373.38,263.05,372.21,263.63,371,264.18Zm6.83-3.62-.51-.86c1.09-.66,2.17-1.35,3.22-2.05l.56.83C380.08,259.19,379,259.89,377.87,260.56Zm6.41-4.34-.61-.79c1-.77,2-1.58,3-2.4l.65.76C386.32,254.62,385.3,255.44,384.28,256.22Zm5.86-5-.7-.72c.91-.88,1.8-1.8,2.65-2.73l.74.67C392,249.35,391.06,250.29,390.14,251.18Zm5.21-5.71-.78-.63c.79-1,1.56-2,2.29-3l.82.57C396.94,243.43,396.15,244.47,395.35,245.47Zm4.46-6.31-.85-.53c.66-1.07,1.3-2.17,1.9-3.29l.88.48C401.13,237,400.48,238.07,399.81,239.16Zm3.66-6.8-.9-.42c.52-1.14,1-2.31,1.5-3.49l.93.37C404.53,230,404,231.21,403.47,232.36Zm2.86-7.17-.95-.32c.4-1.19.78-2.41,1.12-3.64l1,.27C407.12,222.75,406.74,224,406.33,225.19Zm2.08-7.43-1-.22c.27-1.22.53-2.48.76-3.73l1,.17C409,215.25,408.7,216.53,408.41,217.76Zm1.37-7.59-1-.13c.17-1.24.31-2.52.43-3.79l1,.09C410.1,207.63,410,208.92,409.78,210.17Zm.73-7.67-1-.06c.07-1.25.11-2.53.14-3.82l1,0C410.62,199.94,410.58,201.23,410.51,202.5Zm-.85-7.7c0-1.25-.05-2.54-.11-3.82l1,0c.06,1.3.1,2.59.11,3.86Zm-.34-7.64c-.09-1.27-.21-2.55-.34-3.8l1-.11c.14,1.26.26,2.55.35,3.84ZM92.85,185.45c-.6-.75-1.17-1.52-1.72-2.28l.81-.59c.54.76,1.11,1.51,1.7,2.25ZM89,179.93c-.67-1.11-1.31-2.25-1.89-3.39l.9-.45c.56,1.12,1.19,2.23,1.85,3.32Zm319.51-.37c-.18-1.26-.38-2.53-.61-3.77l1-.17c.23,1.25.43,2.53.61,3.8ZM85.48,173c-.49-1.2-.93-2.43-1.32-3.65l1-.3c.37,1.19.81,2.39,1.29,3.57Zm321.67-1c-.28-1.25-.57-2.49-.89-3.71l1-.25c.32,1.23.62,2.49.9,3.75Zm-324-6.43c-.28-1.27-.51-2.56-.67-3.83l1-.12a37.33,37.33,0,0,0,.65,3.73Zm322.06-1c-.37-1.22-.77-2.44-1.19-3.63l.94-.33c.43,1.2.83,2.43,1.21,3.66Zm-323-6.75c0-.4,0-.81,0-1.21,0-.89,0-1.79.09-2.68l1,.07c-.06.86-.09,1.74-.09,2.61,0,.39,0,.79,0,1.18Zm320.49-.45c-.47-1.18-1-2.36-1.5-3.5l.91-.42c.53,1.16,1,2.35,1.52,3.55Zm-3.17-6.93c-.58-1.13-1.19-2.26-1.82-3.35l.87-.5c.64,1.1,1.26,2.25,1.85,3.39Zm-315.8-.2-1-.17a37.15,37.15,0,0,1,.86-3.79l1,.27C84.21,147.85,83.93,149.1,83.71,150.34Zm312-6.41c-.68-1.07-1.4-2.13-2.14-3.16l.82-.58c.74,1,1.47,2.12,2.16,3.2Zm-309.95-.86-.93-.38a37.68,37.68,0,0,1,1.64-3.53l.89.48A34.54,34.54,0,0,0,85.76,143.07Zm305.52-5.35c-.78-1-1.6-2-2.43-2.93l.75-.66c.85,1,1.68,2,2.47,3Zm-184.64-.81-2.42,0,0-1c1.28,0,2.57,0,3.82,0l0,1Zm5.29-.13-.05-1c1.27-.07,2.55-.16,3.81-.27l.09,1C214.51,136.62,213.21,136.71,211.93,136.78Zm-11.56-.05c-1.27-.07-2.57-.16-3.85-.28l.09-1c1.27.11,2.55.2,3.81.27ZM89.31,136.4l-.82-.57a38.82,38.82,0,0,1,2.36-3.09l.76.66A35.54,35.54,0,0,0,89.31,136.4Zm130.3-.3-.12-1c1.26-.16,2.53-.35,3.78-.55l.16,1C222.17,135.75,220.89,135.94,219.61,136.1Zm-26.93,0c-1.25-.15-2.54-.32-3.82-.51l.15-1c1.27.19,2.54.36,3.79.5Zm-7.62-1.13c-1.25-.21-2.52-.46-3.79-.71l.2-1c1.26.25,2.52.49,3.76.71Zm42.16-.09-.2-1c1.24-.26,2.49-.54,3.72-.85l.24,1C229.74,134.29,228.47,134.58,227.22,134.84Zm-49.71-1.43c-1.23-.28-2.49-.58-3.75-.89l.25-1c1.24.31,2.5.61,3.72.88Zm57.2-.42-.28-1c1.21-.35,2.44-.73,3.66-1.12l.31,1C237.17,132.26,235.93,132.64,234.71,133Zm151.56-1c-.88-.91-1.79-1.81-2.71-2.68l.69-.73c.93.88,1.85,1.79,2.74,2.71ZM170,131.54c-1.22-.33-2.47-.69-3.71-1l.29-1c1.23.36,2.47.71,3.68,1Zm-75.81-.88-.69-.73a37.51,37.51,0,0,1,3-2.51l.61.8A33.87,33.87,0,0,0,94.23,130.66Zm147.81,0-.34-1c1.17-.42,2.38-.88,3.57-1.36l.38.93C244.44,129.71,243.23,130.18,242,130.61Zm-79.39-1.24c-1.2-.38-2.43-.78-3.66-1.19l.32-1,3.64,1.18Zm86.55-1.61-.39-.92c1.14-.49,2.31-1,3.5-1.56l.41.91C251.53,126.74,250.35,127.27,249.2,127.76Zm-93.85-.84c-1.19-.42-2.41-.86-3.62-1.31l.35-.93,3.61,1.3Zm225.37-.17c-1-.82-2-1.64-3-2.42l.61-.79c1,.79,2,1.62,3,2.45Zm-280.47-.66-.52-.86a38.49,38.49,0,0,1,3.42-1.84l.43.9C102.44,124.84,101.32,125.44,100.25,126.09Zm156-1.53-.43-.91c1.1-.53,2.22-1.08,3.43-1.69l.45.9Zm-108.06-.24c-1.22-.42-2.44-.81-3.64-1.16l.28-1c1.21.36,2.45.76,3.68,1.18Zm-41.07-1.51-.35-.94c1.2-.44,2.44-.84,3.7-1.18l.26,1C109.46,122,108.24,122.38,107.07,122.81Zm33.74-.66c-1.24-.31-2.5-.59-3.72-.84l.2-1c1.24.25,2.5.53,3.76.85Zm233.89-.09c-1-.73-2.09-1.45-3.16-2.13l.54-.85c1.08.7,2.16,1.42,3.2,2.16Zm-111.63-1-.45-.89,3.4-1.77.46.89Zm-148.68-.29-.19-1c1.25-.23,2.54-.42,3.84-.56l.1,1C116.87,120.4,115.61,120.59,114.39,120.82Zm18.94-.16c-1.27-.18-2.54-.33-3.78-.44l.09-1c1.26.11,2.55.26,3.84.45ZM121.94,120l0-1c1.26,0,2.57,0,3.87,0l0,1C124.46,120,123.18,120,121.94,120Zm246.33-2.07c-1.09-.64-2.22-1.26-3.34-1.86l.46-.88c1.14.6,2.28,1.23,3.39,1.87Zm-98.39-.38-.47-.89,3.4-1.78.47.89Zm91.62-3.19c-1.14-.54-2.32-1.07-3.49-1.57l.39-.92c1.19.5,2.38,1,3.53,1.58ZM276.68,114l-.45-.89c1.22-.63,2.34-1.19,3.43-1.73l.45.89Zm77.78-2.64c-1.17-.45-2.39-.89-3.59-1.3l.32-.94c1.22.41,2.44.85,3.63,1.3Zm-70.91-.76-.42-.91c1.12-.53,2.33-1,3.57-1.5l.35.94C285.83,109.59,284.66,110.08,283.55,110.6Zm63.67-1.69c-1.21-.36-2.45-.71-3.68-1l.25-1c1.25.33,2.5.67,3.72,1Zm-56.56-1-.29-1c1.2-.37,2.45-.71,3.73-1l.23,1C293.08,107.2,291.84,107.54,290.66,107.9Zm49.16-.9c-1.23-.28-2.49-.53-3.75-.76l.19-1c1.26.23,2.53.49,3.78.77Zm-41.76-.93-.19-1c1.24-.24,2.52-.46,3.81-.65l.15,1C300.55,105.62,299.29,105.84,298.06,106.07Zm34.24-.46c-1.25-.19-2.53-.35-3.79-.5l.11-1c1.28.14,2.56.31,3.83.5ZM305.62,105l-.11-1c1.26-.13,2.56-.24,3.85-.33l.06,1C308.15,104.72,306.87,104.82,305.62,105Zm19.08-.21c-1.27-.1-2.55-.18-3.82-.23l.05-1c1.27,0,2.57.13,3.85.23Zm-11.46-.3,0-1c1,0,2,0,3,0h.86v1h-.88C315.2,104.41,314.21,104.43,313.24,104.45Z"/><path class="cls-32" d="M333.9,321.63c-.06-.25-.88-4.16-1.07-5.14,0,0,0-.06,0-.09v0h0l.54-1.12Z"/></svg>